<?xml version="1.0" standalone="no"?>
<!DOCTYPE svg PUBLIC "-//W3C//DTD SVG 20010904//EN"
 "http://www.w3.org/TR/2001/REC-SVG-20010904/DTD/svg10.dtd">
<svg version="1.0" xmlns="http://www.w3.org/2000/svg"
 width="2000.000000pt" height="2000.000000pt" viewBox="0 0 2000.000000 2000.000000"
 preserveAspectRatio="xMidYMid meet">
<metadata>
Created by potrace 1.14, written by Peter Selinger 2001-2017
</metadata>
<g transform="translate(0.000000,2000.000000) scale(0.100000,-0.100000)"
fill="#000000" stroke="none">
<path d="M0 10000 l0 -10000 10000 0 10000 0 0 10000 0 10000 -10000 0 -10000
0 0 -10000z m10459 6275 c1367 -130 2606 -829 3432 -1937 530 -710 846 -1535
935 -2440 23 -234 23 -662 0 -896 -52 -532 -178 -1018 -386 -1497 -408 -936
-1135 -1747 -2028 -2259 -603 -346 -1253 -552 -1964 -622 -234 -23 -662 -23
-896 0 -1150 113 -2170 593 -2977 1401 -807 807 -1288 1827 -1401 2977 -23
234 -23 662 0 896 113 1150 593 2170 1401 2977 752 752 1697 1224 2750 1374
124 18 302 34 480 45 113 7 498 -5 654 -19z m-2769 -10121 c147 -43 281 -155
343 -285 62 -132 72 -188 72 -419 0 -184 -2 -213 -23 -285 -66 -228 -198 -368
-407 -431 -45 -14 -92 -18 -190 -18 -114 0 -139 3 -208 27 -93 32 -146 64
-210 126 -129 124 -191 314 -190 581 1 316 113 536 328 646 44 23 96 47 115
53 104 33 268 35 370 5z m2866 16 c96 -12 178 -33 245 -61 l49 -21 0 -158 0
-157 -77 -7 c-42 -3 -91 -6 -110 -6 l-33 0 0 79 c0 73 -2 81 -25 100 -51 39
-213 37 -300 -5 -77 -36 -107 -161 -56 -236 35 -51 70 -69 245 -128 227 -77
327 -145 379 -260 17 -37 21 -66 21 -165 1 -112 -1 -124 -28 -182 -79 -172
-278 -263 -542 -249 -113 6 -274 40 -333 70 l-31 17 0 164 c0 190 -15 170 133
179 l87 6 0 -90 0 -89 32 -17 c50 -26 199 -31 273 -9 121 35 178 151 125 259
-28 59 -83 90 -260 146 -305 97 -393 189 -393 410 0 148 43 239 154 321 108
82 259 112 445 89z m2172 -15 c38 -7 98 -25 133 -38 l64 -24 3 -160 2 -160
-76 -7 c-42 -3 -92 -6 -110 -6 l-33 0 -3 81 c-3 77 -5 83 -31 103 -53 39 -255
24 -313 -22 -50 -42 -72 -115 -54 -181 19 -72 75 -108 261 -171 322 -107 417
-212 407 -449 -5 -124 -36 -198 -114 -271 -107 -101 -260 -146 -460 -136 -113
6 -274 40 -333 70 l-31 17 0 164 c0 190 -15 170 133 179 l87 6 0 -90 0 -89 32
-17 c49 -25 199 -31 270 -10 69 20 105 48 129 100 39 86 11 185 -64 231 -23
14 -112 47 -197 75 -305 97 -393 189 -393 410 0 126 25 193 101 273 101 105
238 151 424 142 53 -3 128 -12 166 -20z m-3378 -611 c144 -409 219 -608 231
-615 10 -5 38 -9 63 -9 l46 0 0 -90 0 -90 -275 0 -275 0 0 84 0 84 60 7 c84
10 89 20 59 113 l-25 77 -251 3 -251 2 -30 -89 c-34 -102 -34 -101 49 -101
l49 0 0 -90 0 -90 -245 0 -245 0 0 84 0 85 46 7 c26 4 54 15 62 25 12 14 306
846 356 1007 6 19 4 22 -21 22 -15 0 -45 3 -65 6 l-38 7 0 83 0 84 243 0 243
0 214 -606z m2370 522 l0 -84 -50 -7 c-84 -12 -80 19 -80 -546 0 -556 -7 -509
76 -509 l44 0 0 -90 0 -90 -255 0 -255 0 0 84 0 85 48 7 c88 12 82 -30 82 546
l0 508 -60 0 -60 0 0 90 0 90 255 0 255 0 0 -84z m-2038 -1846 c144 -40 185
-244 67 -332 -72 -53 -145 -61 -225 -24 -59 27 -88 63 -105 129 -37 148 106
270 263 227z m583 -9 c22 -10 46 -25 53 -34 11 -13 10 -18 -10 -31 -22 -15
-27 -14 -63 4 -46 24 -74 25 -119 6 -52 -22 -76 -60 -76 -122 0 -44 5 -59 28
-84 33 -38 91 -53 145 -39 l37 10 0 59 c0 60 0 60 30 60 l30 0 0 -78 0 -78
-37 -18 c-65 -31 -133 -32 -195 -4 -63 29 -92 64 -109 131 -39 156 134 288
286 218z m520 0 c179 -81 140 -340 -56 -367 -61 -8 -123 11 -169 52 -44 40
-63 86 -62 151 3 133 159 222 287 164z m-1695 -146 l0 -154 98 -3 97 -3 3 -27
3 -28 -135 0 -136 0 0 185 0 185 35 0 35 0 0 -155z"/>
<path d="M9610 16039 c-2041 -176 -3715 -1668 -4125 -3677 -60 -295 -85 -564
-85 -912 0 -274 9 -410 41 -643 186 -1364 997 -2589 2187 -3304 611 -367 1280
-583 1997 -643 155 -13 595 -13 750 0 924 78 1777 416 2500 993 916 729 1527
1802 1684 2954 32 233 41 369 41 643 0 274 -9 410 -41 643 -157 1153 -768
2224 -1684 2955 -722 575 -1576 914 -2500 992 -139 11 -626 11 -765 -1z m890
-193 c620 -78 1168 -258 1690 -554 596 -338 1138 -848 1517 -1429 375 -575
613 -1238 690 -1918 25 -226 25 -778 0 -985 -30 -243 -82 -513 -132 -682 l-16
-58 -48 0 c-64 0 -140 -24 -172 -54 l-27 -25 -54 53 c-115 111 -276 124 -446
36 -70 -36 -72 -37 -77 -16 -11 53 -49 956 -40 964 9 9 176 -52 280 -102 272
-134 461 -303 481 -432 7 -52 19 -52 52 -4 39 59 55 132 50 244 -5 132 -32
193 -123 281 -115 111 -267 174 -426 176 l-84 1 74 24 c222 73 402 66 530 -20
56 -38 59 -34 34 40 -56 168 -216 274 -413 274 -128 0 -248 -42 -332 -118
l-42 -37 20 33 c69 121 216 266 348 345 76 45 74 50 -21 63 -203 26 -443 -151
-482 -356 -9 -50 -8 -51 -46 75 -57 190 -117 298 -193 346 -83 52 -168 46
-273 -22 l-50 -32 70 -37 c158 -83 311 -233 383 -374 l20 -39 -42 34 c-126
103 -253 193 -319 226 -94 46 -202 57 -278 28 -54 -21 -200 -155 -245 -224
-33 -52 -39 -105 -10 -97 154 45 431 42 638 -9 136 -33 167 -47 89 -40 -70 7
-195 -13 -278 -45 -176 -67 -335 -230 -382 -394 -31 -108 -6 -278 53 -354 l18
-23 59 95 c123 200 281 352 450 435 97 48 174 71 236 71 l31 0 -6 -57 c-21
-200 -66 -856 -66 -973 0 -41 -4 -80 -8 -85 -4 -6 -26 -19 -50 -29 -75 -34
-142 -126 -142 -196 0 -30 -1 -31 -32 -25 -40 9 -48 20 -48 66 0 55 -27 187
-55 269 -74 218 -201 340 -355 340 -76 0 -130 -22 -174 -69 -32 -33 -46 -39
-46 -18 0 27 -60 103 -97 124 -56 31 -94 36 -141 20 l-42 -15 -45 63 c-57 81
-112 128 -200 171 -107 53 -170 55 -341 13 l-137 -33 -61 18 c-143 40 -142 40
-189 22 -75 -29 -146 -113 -202 -242 l-31 -71 -34 24 c-52 35 -119 32 -164 -7
-41 -37 -69 -103 -70 -169 l-1 -48 -48 43 c-49 44 -122 74 -177 74 -15 0 -49
-7 -76 -15 -87 -26 -106 -22 -180 45 -36 33 -78 63 -92 67 -24 6 -60 -4 -163
-43 -44 -17 -48 -17 -73 -1 -14 10 -37 40 -51 67 -38 74 -71 87 -178 72 -121
-17 -135 -16 -217 25 -64 32 -85 37 -145 37 -51 0 -83 -5 -117 -21 -61 -28
-139 -101 -169 -158 -15 -28 -30 -44 -39 -43 -17 4 -23 70 -35 436 -9 255 -18
237 97 196 155 -56 347 -173 432 -263 50 -54 85 -120 86 -161 1 -25 1 -25 29
8 38 44 51 93 51 189 0 114 -20 165 -94 239 -102 101 -270 166 -390 151 -31
-4 -22 0 34 18 177 58 308 54 415 -10 30 -19 55 -30 55 -25 0 28 -45 122 -75
158 -38 44 -135 98 -194 107 -89 15 -86 11 -46 52 88 90 131 251 122 457 -9
224 -49 325 -188 470 -105 110 -201 179 -342 246 -173 83 -231 95 -450 95
-103 0 -187 1 -187 2 0 5 257 83 335 102 124 30 213 41 342 41 187 0 328 -42
458 -135 35 -25 66 -45 69 -45 11 0 -37 149 -69 215 -124 254 -418 409 -745
392 -223 -12 -431 -101 -576 -244 l-48 -48 33 60 c59 105 171 247 290 365 129
128 188 173 352 272 128 77 128 76 -17 98 -356 54 -749 -196 -857 -546 -14
-44 -29 -109 -33 -145 l-7 -63 -42 159 c-53 203 -67 245 -129 385 -71 158
-134 248 -219 313 -82 63 -111 72 -222 72 -97 0 -103 -1 -185 -41 -47 -23
-107 -58 -134 -77 l-48 -35 73 -34 c108 -50 250 -141 348 -223 147 -122 310
-324 388 -479 32 -63 33 -69 12 -50 -87 76 -389 308 -475 364 -225 146 -422
198 -589 155 -107 -28 -171 -71 -307 -205 -71 -69 -128 -124 -128 -122 0 6 97
198 133 262 194 355 445 687 742 986 507 508 1073 858 1755 1084 345 114 660
177 1070 214 111 10 690 -3 810 -18z m-3695 -2751 c148 -20 227 -37 375 -81
110 -32 243 -81 190 -69 -151 33 -356 31 -495 -5 -404 -104 -727 -388 -835
-735 -31 -100 -38 -256 -16 -365 17 -84 74 -221 117 -281 l21 -30 47 83 c199
354 496 666 794 835 152 86 337 143 465 143 l73 0 -5 -52 c-10 -89 -25 -271
-46 -543 -11 -143 -22 -278 -25 -300 -4 -35 -15 -212 -55 -930 -6 -99 -10
-238 -10 -309 l0 -129 -43 46 c-104 112 -259 118 -374 13 l-40 -36 -11 39
c-37 122 -166 214 -277 196 -46 -7 -120 -47 -129 -70 -4 -12 -14 -7 -46 24
-167 162 -449 95 -598 -142 -41 -67 -102 -204 -102 -233 0 -34 -12 -4 -46 117
-55 196 -110 490 -138 735 -16 136 -24 449 -16 624 16 323 53 585 126 879 35
137 142 480 164 520 11 21 106 41 280 61 52 5 111 12 130 14 74 9 411 -4 525
-19z m1118 -599 c290 -97 590 -259 847 -456 116 -90 280 -266 280 -302 0 -5
-11 -8 -25 -8 -38 0 -125 -37 -176 -74 -55 -41 -103 -110 -126 -183 l-17 -53
-26 90 c-38 127 -82 212 -136 259 -51 44 -86 56 -143 46 -39 -6 -131 -58 -131
-72 1 -5 23 -19 51 -31 102 -49 229 -170 299 -287 29 -47 36 -51 -118 66 -158
121 -258 157 -360 129 -60 -16 -204 -153 -228 -216 -9 -25 -15 -46 -13 -48 2
-3 24 0 49 5 156 30 391 17 535 -30 l60 -19 -75 -1 c-147 -3 -253 -46 -361
-148 -152 -144 -191 -332 -98 -482 l21 -35 30 57 c78 145 250 316 383 381 75
37 190 65 204 50 5 -5 1 -106 -9 -224 -10 -118 -21 -267 -25 -331 l-7 -115
-49 -18 c-67 -23 -146 -89 -194 -161 l-40 -60 -73 4 c-65 3 -80 0 -136 -28
-36 -18 -82 -51 -108 -79 l-45 -48 -24 20 c-14 12 -35 28 -47 36 -23 15 -24
24 -48 375 -13 198 -31 468 -39 600 -20 327 -55 1151 -55 1308 0 121 1 127 20
127 12 0 80 -20 153 -44z m1177 -861 c5 -13 12 -46 16 -74 l6 -49 -33 -6
c-102 -20 -135 -32 -190 -67 l-60 -39 18 32 c21 38 207 228 223 228 6 0 15
-11 20 -25z m-2282 -1676 c67 -33 125 -96 137 -150 8 -34 8 -34 42 -11 23 14
51 17 168 17 128 0 144 -2 190 -25 69 -33 145 -113 175 -182 15 -33 31 -58 40
-58 67 -1 156 -62 181 -123 7 -17 13 -33 14 -35 1 -1 26 9 56 23 135 63 301
11 381 -120 26 -44 22 -48 -19 -21 -118 78 -305 81 -424 7 l-46 -28 -18 34
c-25 46 -87 101 -144 126 -33 15 -67 21 -121 21 -93 0 -165 -30 -240 -100 -27
-26 -50 -44 -50 -41 0 29 47 120 77 149 38 37 133 88 165 88 51 0 62 32 29 86
-27 45 -78 81 -134 95 -101 25 -283 -13 -385 -80 l-47 -31 -24 32 c-57 76
-148 155 -216 189 -64 31 -77 34 -160 34 -79 0 -96 -3 -145 -29 l-55 -28 54
55 c133 137 361 183 519 106z m7032 -19 c56 -28 55 -35 -3 -31 -63 4 -112 -10
-166 -50 l-43 -31 41 -20 c40 -19 71 -60 71 -92 0 -12 -9 -11 -52 6 -68 26
-175 20 -270 -15 -38 -13 -68 -21 -68 -17 0 4 10 22 23 41 26 38 79 77 116 85
50 10 71 24 71 44 0 29 49 79 95 96 50 18 132 11 185 -16z m-1241 -287 c32 -8
35 -12 47 -70 7 -34 20 -72 28 -86 l16 -24 -107 -27 c-287 -74 -788 -227 -832
-255 -18 -11 1 -14 329 -51 451 -50 884 -87 1344 -115 137 -8 251 -16 252 -18
4 -4 -205 -292 -219 -301 -9 -5 -40 10 -97 47 -47 30 -127 76 -178 101 -88 44
-287 116 -362 131 -43 9 -42 7 93 -99 125 -99 288 -240 352 -305 l49 -51 -34
-37 c-81 -88 -125 -133 -130 -133 -4 0 -14 26 -24 58 -27 85 -60 145 -101 180
-55 49 -77 43 -109 -27 -47 -105 -67 -204 -67 -328 1 -61 3 -120 6 -130 6 -20
5 -18 -72 142 -100 208 -260 452 -364 553 -58 57 -199 122 -199 93 0 -5 52
-132 115 -282 63 -150 113 -274 111 -276 -2 -2 -16 16 -31 39 -47 71 -169 183
-276 254 -205 135 -438 210 -769 248 -74 9 -139 16 -145 16 -5 0 53 -33 130
-73 78 -40 179 -99 225 -131 85 -59 253 -196 248 -202 -2 -1 -35 4 -73 12
-279 59 -591 65 -875 18 -124 -21 -134 -28 -63 -43 143 -32 593 -199 593 -220
0 -5 -42 -11 -94 -14 -206 -14 -404 -72 -508 -149 -31 -24 -55 -44 -54 -45 1
-2 56 2 122 8 149 14 567 5 722 -15 171 -23 332 -53 487 -92 143 -36 404 -119
418 -133 4 -5 -4 -16 -18 -25 -26 -17 -30 -17 -123 13 -161 50 -361 84 -607
101 -378 27 -699 -51 -925 -225 -31 -24 -62 -51 -70 -60 -13 -16 -13 -17 5
-12 30 9 478 107 490 107 5 0 -8 -11 -30 -23 -53 -30 -180 -117 -230 -156 -63
-51 -217 -205 -207 -209 5 -1 56 16 113 38 255 101 772 300 777 300 3 0 -31
-25 -75 -55 -45 -31 -119 -89 -165 -130 -83 -72 -155 -154 -127 -143 8 3 98
33 199 66 182 59 362 104 470 117 50 6 53 5 35 -8 -28 -20 -269 -131 -390
-179 -856 -341 -1832 -405 -2715 -177 -473 122 -931 321 -1325 576 -105 69
-358 253 -353 258 2 2 84 24 184 49 507 127 745 201 1404 439 350 126 496 196
600 285 94 80 105 204 23 257 -24 16 -133 49 -133 40 0 -2 13 -17 29 -34 37
-39 46 -76 27 -105 -30 -47 -253 -143 -443 -191 -54 -13 -554 -97 -1111 -186
l-1014 -162 -58 64 -58 64 62 8 c486 63 1615 259 1971 342 55 13 146 33 203
45 193 39 262 78 262 147 0 31 -7 44 -49 82 -74 70 -137 102 -524 271 -115 50
-150 74 -127 89 67 44 701 104 1510 142 545 25 2517 34 2609 12z"/>
<path d="M7392 5942 c-70 -25 -118 -65 -168 -139 -53 -78 -75 -165 -81 -318
-9 -219 32 -372 126 -466 70 -69 123 -89 235 -89 169 1 251 69 313 255 24 73
27 94 27 245 1 143 -2 176 -22 243 -41 142 -88 209 -177 252 -73 36 -179 43
-253 17z"/>
<path d="M8885 5615 c-53 -163 -95 -298 -92 -301 2 -2 90 -3 194 -2 l190 3
-92 293 c-51 161 -95 296 -98 299 -3 3 -49 -128 -102 -292z"/>
<path d="M9564 4156 c-50 -22 -74 -61 -74 -122 0 -42 5 -59 26 -83 47 -56 143
-61 192 -9 65 70 49 172 -32 209 -48 22 -70 23 -112 5z"/>
<path d="M10643 4156 c-90 -40 -96 -191 -11 -237 57 -31 155 -4 183 51 30 59
8 152 -43 179 -35 19 -96 22 -129 7z"/>
</g>
</svg>
